<svg width="1080" height="482" viewBox="0 0 1080 482" fill="none" xmlns="http://www.w3.org/2000/svg">
<g id="Hero-page-svg">
<g id="Scroll-icon">
<rect id="Rectangle 1" x="507.5" y="127.5" width="65" height="115" rx="32.5" stroke="white" stroke-width="3"/>
<path id="Vector 1" d="M540 151L540 173" stroke="white" stroke-width="5" stroke-linecap="round"/>
<path id="Vector 4" d="M522 247L540.24 262L558 247" stroke="white" stroke-width="2" stroke-linecap="round" stroke-linejoin="round"/>
<path id="Vector 5" d="M527 259L540.68 270L554 259" stroke="white" stroke-opacity="0.75" stroke-width="1.5" stroke-linecap="round" stroke-linejoin="round"/>
<path id="Vector 6" d="M533 272L540.093 277L547 272" stroke="white" stroke-opacity="0.5" stroke-linecap="round" stroke-linejoin="round"/>
<path id="SLOWLY" d="M501.05 61.45C501.883 61.45 502.742 61.4917 503.625 61.575C504.525 61.6417 505.417 61.775 506.3 61.975L506.125 63.75C505.392 63.7167 504.583 63.6917 503.7 63.675C502.817 63.6583 501.958 63.65 501.125 63.65C500.342 63.65 499.708 63.6917 499.225 63.775C498.742 63.8417 498.383 64.05 498.15 64.4C497.933 64.7333 497.825 65.2917 497.825 66.075C497.825 66.9583 497.992 67.575 498.325 67.925C498.658 68.275 499.2 68.55 499.95 68.75L503.425 69.675C504.758 70.025 505.675 70.5917 506.175 71.375C506.675 72.1583 506.925 73.2167 506.925 74.55C506.925 75.8667 506.717 76.8667 506.3 77.55C505.9 78.2333 505.267 78.7 504.4 78.95C503.533 79.1833 502.408 79.3 501.025 79.3C500.458 79.3 499.708 79.275 498.775 79.225C497.842 79.175 496.767 79.0333 495.55 78.8L495.725 76.975C496.708 77.0083 497.508 77.0333 498.125 77.05C498.742 77.0667 499.275 77.0833 499.725 77.1C500.175 77.1 500.633 77.1 501.1 77.1C501.933 77.1 502.592 77.0417 503.075 76.925C503.558 76.7917 503.9 76.5417 504.1 76.175C504.3 75.8083 504.4 75.2583 504.4 74.525C504.4 73.5917 504.233 72.9583 503.9 72.625C503.567 72.2917 503.042 72.0333 502.325 71.85L498.75 70.875C497.5 70.5417 496.617 69.9833 496.1 69.2C495.583 68.4 495.325 67.35 495.325 66.05C495.325 64.7 495.525 63.7 495.925 63.05C496.325 62.4 496.95 61.975 497.8 61.775C498.65 61.5583 499.733 61.45 501.05 61.45ZM512.685 61.75V75.35C512.685 76.4 513.227 76.925 514.31 76.925H520.485L520.61 78.85C519.493 78.9333 518.352 78.9833 517.185 79C516.035 79.0167 514.893 79.025 513.76 79.025C512.493 79.025 511.585 78.7167 511.035 78.1C510.485 77.4667 510.21 76.675 510.21 75.725V61.75H512.685ZM529.133 61.425C530.833 61.425 532.183 61.7 533.183 62.25C534.2 62.8 534.925 63.725 535.358 65.025C535.808 66.325 536.033 68.1083 536.033 70.375C536.033 72.6417 535.808 74.425 535.358 75.725C534.925 77.025 534.2 77.95 533.183 78.5C532.183 79.05 530.833 79.325 529.133 79.325C527.433 79.325 526.075 79.05 525.058 78.5C524.042 77.95 523.308 77.025 522.858 75.725C522.408 74.425 522.183 72.6417 522.183 70.375C522.183 68.1083 522.408 66.325 522.858 65.025C523.308 63.725 524.042 62.8 525.058 62.25C526.075 61.7 527.433 61.425 529.133 61.425ZM529.133 63.6C528.05 63.6 527.192 63.8083 526.558 64.225C525.942 64.625 525.5 65.325 525.233 66.325C524.967 67.3083 524.833 68.6583 524.833 70.375C524.833 72.0917 524.967 73.45 525.233 74.45C525.5 75.4333 525.942 76.1333 526.558 76.55C527.192 76.95 528.05 77.15 529.133 77.15C530.217 77.15 531.067 76.95 531.683 76.55C532.317 76.1333 532.767 75.4333 533.033 74.45C533.3 73.45 533.433 72.0917 533.433 70.375C533.433 68.6583 533.3 67.3083 533.033 66.325C532.767 65.325 532.317 64.625 531.683 64.225C531.067 63.8083 530.217 63.6 529.133 63.6ZM560.605 61.75L557.23 78.275C557.18 78.4917 557.064 78.6667 556.88 78.8C556.714 78.9333 556.514 79 556.28 79H553.58C553.347 79 553.139 78.9333 552.955 78.8C552.772 78.65 552.664 78.4667 552.63 78.25L550.08 65.6C549.997 65.2667 549.922 64.9333 549.855 64.6C549.805 64.2667 549.747 63.9333 549.68 63.6H549.18C549.114 63.9333 549.047 64.275 548.98 64.625C548.93 64.9583 548.872 65.2833 548.805 65.6L546.28 78.25C546.23 78.4667 546.114 78.65 545.93 78.8C545.764 78.9333 545.564 79 545.33 79H542.605C542.372 79 542.164 78.9333 541.98 78.8C541.797 78.6667 541.689 78.4917 541.655 78.275L538.28 61.75H540.88L543.405 74.925C543.472 75.2583 543.53 75.6083 543.58 75.975C543.63 76.3417 543.689 76.725 543.755 77.125H544.305C544.422 76.325 544.555 75.5917 544.705 74.925L547.23 62.55C547.264 62.3167 547.364 62.125 547.53 61.975C547.714 61.825 547.93 61.75 548.18 61.75H550.705C550.955 61.75 551.164 61.825 551.33 61.975C551.497 62.125 551.605 62.3167 551.655 62.55L554.18 74.925C554.264 75.3083 554.33 75.6833 554.38 76.05C554.447 76.4 554.497 76.7583 554.53 77.125H555.155C555.189 76.7583 555.23 76.3917 555.28 76.025C555.33 75.6583 555.389 75.3 555.455 74.95L558.005 61.75H560.605ZM565.883 61.75V75.35C565.883 76.4 566.425 76.925 567.508 76.925H573.683L573.808 78.85C572.692 78.9333 571.55 78.9833 570.383 79C569.233 79.0167 568.092 79.025 566.958 79.025C565.692 79.025 564.783 78.7167 564.233 78.1C563.683 77.4667 563.408 76.675 563.408 75.725V61.75H565.883ZM586.178 61.75L580.453 73.025V79H577.953V72.975L572.228 61.75H574.878L578.378 68.85C578.528 69.1667 578.661 69.5 578.778 69.85C578.895 70.2 579.011 70.5333 579.128 70.85H579.303C579.42 70.5333 579.536 70.2 579.653 69.85C579.786 69.5 579.92 69.175 580.053 68.875L583.553 61.75H586.178Z" fill="white"/>
<path id="SCROLL DOWN" d="M446.91 17.91C447.93 17.91 449.04 17.97 450.24 18.09C451.44 18.19 452.61 18.4 453.75 18.72L453.45 21.78C452.57 21.74 451.53 21.71 450.33 21.69C449.15 21.67 448 21.66 446.88 21.66C446.14 21.66 445.54 21.7 445.08 21.78C444.64 21.86 444.32 22.04 444.12 22.32C443.94 22.58 443.85 23.02 443.85 23.64C443.85 24.36 444.01 24.88 444.33 25.2C444.67 25.52 445.24 25.8 446.04 26.04L450.03 27.33C451.67 27.91 452.81 28.68 453.45 29.64C454.11 30.58 454.44 31.83 454.44 33.39C454.44 34.97 454.19 36.2 453.69 37.08C453.19 37.94 452.37 38.54 451.23 38.88C450.11 39.22 448.61 39.39 446.73 39.39C446.05 39.39 445.08 39.34 443.82 39.24C442.56 39.16 441.13 38.94 439.53 38.58L439.8 35.34C441.58 35.4 443 35.44 444.06 35.46C445.14 35.48 446.03 35.49 446.73 35.49C447.93 35.49 448.75 35.37 449.19 35.13C449.63 34.87 449.85 34.31 449.85 33.45C449.85 32.71 449.69 32.19 449.37 31.89C449.07 31.59 448.56 31.33 447.84 31.11L443.64 29.67C442.04 29.11 440.91 28.36 440.25 27.42C439.61 26.48 439.29 25.23 439.29 23.67C439.29 22.09 439.54 20.89 440.04 20.07C440.56 19.23 441.38 18.66 442.5 18.36C443.62 18.06 445.09 17.91 446.91 17.91ZM465.748 17.94C466.708 17.94 467.538 17.97 468.238 18.03C468.938 18.07 469.578 18.14 470.158 18.24C470.738 18.34 471.338 18.47 471.958 18.63L471.598 22.02C470.938 21.98 470.328 21.95 469.768 21.93C469.208 21.91 468.608 21.89 467.968 21.87C467.348 21.85 466.608 21.84 465.748 21.84C464.728 21.84 463.928 22.05 463.348 22.47C462.768 22.87 462.358 23.56 462.118 24.54C461.898 25.52 461.788 26.89 461.788 28.65C461.788 30.39 461.898 31.76 462.118 32.76C462.358 33.74 462.768 34.43 463.348 34.83C463.928 35.23 464.728 35.43 465.748 35.43C467.128 35.43 468.288 35.42 469.228 35.4C470.168 35.36 471.098 35.28 472.018 35.16L472.408 38.52C471.448 38.82 470.468 39.03 469.468 39.15C468.468 39.29 467.228 39.36 465.748 39.36C463.608 39.36 461.888 39.02 460.588 38.34C459.308 37.64 458.388 36.51 457.828 34.95C457.268 33.39 456.988 31.29 456.988 28.65C456.988 26.01 457.268 23.91 457.828 22.35C458.388 20.79 459.308 19.67 460.588 18.99C461.888 18.29 463.608 17.94 465.748 17.94ZM483.265 18C485.085 18 486.555 18.19 487.675 18.57C488.815 18.93 489.645 19.56 490.165 20.46C490.705 21.34 490.975 22.57 490.975 24.15C490.975 25.61 490.675 26.79 490.075 27.69C489.495 28.57 488.465 29.1 486.985 29.28V29.43C487.525 29.55 488.095 29.84 488.695 30.3C489.295 30.74 489.715 31.49 489.955 32.55L491.755 39H486.955L485.365 32.67C485.165 32.01 484.885 31.55 484.525 31.29C484.185 31.03 483.705 30.9 483.085 30.9C481.765 30.9 480.675 30.89 479.815 30.87V39H475.315V18.3C476.135 18.22 476.915 18.16 477.655 18.12C478.395 18.08 479.205 18.05 480.085 18.03C480.965 18.01 482.025 18 483.265 18ZM483.175 21.45C481.955 21.45 480.835 21.45 479.815 21.45V27.45H483.175C484.395 27.45 485.235 27.25 485.695 26.85C486.155 26.43 486.385 25.62 486.385 24.42C486.385 23.24 486.155 22.45 485.695 22.05C485.235 21.65 484.395 21.45 483.175 21.45ZM502.9 17.88C504.54 17.88 505.92 18.06 507.04 18.42C508.18 18.76 509.1 19.34 509.8 20.16C510.5 20.98 511.01 22.08 511.33 23.46C511.65 24.84 511.81 26.57 511.81 28.65C511.81 30.73 511.65 32.46 511.33 33.84C511.01 35.22 510.5 36.32 509.8 37.14C509.1 37.96 508.18 38.54 507.04 38.88C505.92 39.22 504.54 39.39 502.9 39.39C501.26 39.39 499.87 39.22 498.73 38.88C497.59 38.54 496.67 37.96 495.97 37.14C495.27 36.32 494.76 35.22 494.44 33.84C494.14 32.46 493.99 30.73 493.99 28.65C493.99 26.57 494.14 24.84 494.44 23.46C494.76 22.08 495.27 20.98 495.97 20.16C496.67 19.34 497.59 18.76 498.73 18.42C499.87 18.06 501.26 17.88 502.9 17.88ZM502.9 21.48C501.84 21.48 501.01 21.69 500.41 22.11C499.83 22.53 499.41 23.26 499.15 24.3C498.91 25.34 498.79 26.79 498.79 28.65C498.79 30.51 498.91 31.96 499.15 33C499.41 34.04 499.83 34.77 500.41 35.19C501.01 35.59 501.84 35.79 502.9 35.79C503.94 35.79 504.76 35.59 505.36 35.19C505.96 34.77 506.38 34.04 506.62 33C506.86 31.96 506.98 30.51 506.98 28.65C506.98 26.79 506.86 25.34 506.62 24.3C506.38 23.26 505.96 22.53 505.36 22.11C504.76 21.69 503.94 21.48 502.9 21.48ZM519.776 18.3V33.78C519.776 34.8 520.316 35.31 521.396 35.31H528.626L528.836 38.76C527.396 38.92 525.896 39.01 524.336 39.03C522.796 39.05 521.276 39.06 519.776 39.06C518.256 39.06 517.116 38.66 516.356 37.86C515.596 37.06 515.216 36.03 515.216 34.77V18.3H519.776ZM535.83 18.3V33.78C535.83 34.8 536.37 35.31 537.45 35.31H544.68L544.89 38.76C543.45 38.92 541.95 39.01 540.39 39.03C538.85 39.05 537.33 39.06 535.83 39.06C534.31 39.06 533.17 38.66 532.41 37.86C531.65 37.06 531.27 36.03 531.27 34.77V18.3H535.83ZM561.315 18C563.495 18 565.225 18.32 566.505 18.96C567.805 19.6 568.745 20.69 569.325 22.23C569.905 23.77 570.195 25.91 570.195 28.65C570.195 31.39 569.905 33.53 569.325 35.07C568.745 36.61 567.805 37.7 566.505 38.34C565.225 38.96 563.495 39.27 561.315 39.27C559.735 39.27 558.285 39.24 556.965 39.18C555.645 39.14 554.395 39.08 553.215 39V18.3C554.415 18.22 555.665 18.15 556.965 18.09C558.265 18.03 559.715 18 561.315 18ZM561.315 21.51C560.655 21.51 560.025 21.51 559.425 21.51C558.845 21.51 558.295 21.52 557.775 21.54V35.73C558.855 35.75 560.035 35.76 561.315 35.76C562.355 35.76 563.165 35.56 563.745 35.16C564.325 34.74 564.735 34.01 564.975 32.97C565.235 31.93 565.365 30.49 565.365 28.65C565.365 26.81 565.235 25.37 564.975 24.33C564.735 23.29 564.325 22.56 563.745 22.14C563.165 21.72 562.355 21.51 561.315 21.51ZM581.914 17.88C583.554 17.88 584.934 18.06 586.054 18.42C587.194 18.76 588.114 19.34 588.814 20.16C589.514 20.98 590.024 22.08 590.344 23.46C590.664 24.84 590.824 26.57 590.824 28.65C590.824 30.73 590.664 32.46 590.344 33.84C590.024 35.22 589.514 36.32 588.814 37.14C588.114 37.96 587.194 38.54 586.054 38.88C584.934 39.22 583.554 39.39 581.914 39.39C580.274 39.39 578.884 39.22 577.744 38.88C576.604 38.54 575.684 37.96 574.984 37.14C574.284 36.32 573.774 35.22 573.454 33.84C573.154 32.46 573.004 30.73 573.004 28.65C573.004 26.57 573.154 24.84 573.454 23.46C573.774 22.08 574.284 20.98 574.984 20.16C575.684 19.34 576.604 18.76 577.744 18.42C578.884 18.06 580.274 17.88 581.914 17.88ZM581.914 21.48C580.854 21.48 580.024 21.69 579.424 22.11C578.844 22.53 578.424 23.26 578.164 24.3C577.924 25.34 577.804 26.79 577.804 28.65C577.804 30.51 577.924 31.96 578.164 33C578.424 34.04 578.844 34.77 579.424 35.19C580.024 35.59 580.854 35.79 581.914 35.79C582.954 35.79 583.774 35.59 584.374 35.19C584.974 34.77 585.394 34.04 585.634 33C585.874 31.96 585.994 30.51 585.994 28.65C585.994 26.79 585.874 25.34 585.634 24.3C585.394 23.26 584.974 22.53 584.374 22.11C583.774 21.69 582.954 21.48 581.914 21.48ZM620.631 18.3L617.241 37.74C617.181 38.12 616.991 38.43 616.671 38.67C616.371 38.89 616.021 39 615.621 39H611.361C610.941 39 610.571 38.89 610.251 38.67C609.951 38.43 609.781 38.11 609.741 37.71L607.401 24.21C607.321 23.77 607.251 23.33 607.191 22.89C607.151 22.43 607.101 21.98 607.041 21.54H606.471C606.411 21.98 606.351 22.43 606.291 22.89C606.251 23.35 606.201 23.8 606.141 24.24L603.831 37.71C603.771 38.11 603.581 38.43 603.261 38.67C602.961 38.89 602.611 39 602.211 39H597.921C597.501 39 597.141 38.89 596.841 38.67C596.541 38.43 596.361 38.12 596.301 37.74L592.911 18.3H597.501L599.661 32.7C599.701 33.16 599.741 33.64 599.781 34.14C599.841 34.62 599.891 35.14 599.931 35.7H600.501C600.581 35.22 600.661 34.72 600.741 34.2C600.821 33.68 600.901 33.18 600.981 32.7L603.291 19.68C603.331 19.28 603.501 18.95 603.801 18.69C604.101 18.43 604.461 18.3 604.881 18.3H608.661C609.081 18.3 609.431 18.43 609.711 18.69C610.011 18.95 610.191 19.28 610.251 19.68L612.561 32.73C612.641 33.21 612.721 33.71 612.801 34.23C612.881 34.73 612.951 35.22 613.011 35.7H613.611C613.651 35.22 613.691 34.73 613.731 34.23C613.771 33.71 613.821 33.22 613.881 32.76L616.041 18.3H620.631ZM640.959 18.3V37.35C640.959 38.45 640.409 39 639.309 39H636.789C636.289 39 635.909 38.89 635.649 38.67C635.409 38.43 635.169 38.08 634.929 37.62L629.199 26.73C628.959 26.29 628.719 25.79 628.479 25.23C628.259 24.67 628.069 24.13 627.909 23.61H627.579C627.719 24.73 627.789 25.81 627.789 26.85V39H623.469V19.95C623.469 18.85 624.019 18.3 625.119 18.3H627.609C628.089 18.3 628.449 18.42 628.689 18.66C628.949 18.88 629.199 19.21 629.439 19.65L634.989 30.21C635.229 30.67 635.479 31.19 635.739 31.77C635.999 32.33 636.249 32.9 636.489 33.48H636.849C636.789 32.9 636.739 32.33 636.699 31.77C636.679 31.19 636.669 30.61 636.669 30.03V18.3H640.959Z" fill="white"/>
</g>
<g id="FirstSectionSvg">
<g id="Table">
<path id="Rectangle 65" d="M124 176H964L1080 438H0L124 176Z" fill="url(#paint0_linear_51:72)"/>
<path id="Rectangle 66" d="M0 438H1080V482H0V438Z" fill="#4D1C00"/>
</g>
<g id="Mobile">
<g id="Rectangle 61" filter="url(#filter0_f_51:72)">
<path d="M192.861 340.832C195.169 339.742 197.86 339.824 200.1 341.054L281.682 385.823C287.326 388.92 287.201 397.088 281.467 399.998L227.152 427.556C223.807 429.253 219.827 429.12 216.598 427.204L137.986 380.572C132.465 377.297 132.84 369.168 138.638 366.43L192.861 340.832Z" fill="black" fill-opacity="0.6"/>
</g>
<path id="Rectangle 58" d="M184.861 335.832C187.169 334.742 189.86 334.824 192.1 336.054L273.682 380.823C279.326 383.92 279.201 392.088 273.467 394.998L219.152 422.556C215.807 424.253 211.827 424.12 208.598 422.204L129.986 375.572C124.465 372.297 124.84 364.168 130.638 361.43L184.861 335.832Z" fill="#C4C4C4"/>
<path id="Rectangle 59" d="M179.325 338.304C185.111 335.583 191.85 335.804 197.452 338.901L277.761 383.287C278.466 383.677 278.447 384.699 277.728 385.059L219.228 414.429C215.882 416.108 211.913 415.963 208.694 414.044L126.357 364.95C125.668 364.539 125.716 363.523 126.441 363.182L179.325 338.304Z" fill="white"/>
<path id="Rectangle 60" d="M198.213 339.038L272.272 379.563L204.161 412.607L133.411 370.276L198.213 339.038Z" fill="#1B1919"/>
</g>
<g id="Paper">
<path id="Vector 9" d="M954 242.167L845.754 193C799.805 210.79 708.332 246.538 710.023 247.21C711.714 247.882 778.946 283.35 812.35 301L954 242.167Z" fill="white"/>
<g id="Vector 10" filter="url(#filter1_f_51:72)">
<path d="M836.874 211.771C839.105 209.63 841.277 207.75 844.026 206.289C844.685 205.939 845.342 205.603 845.961 205.19C846.138 205.071 846.541 204.725 846.804 204.771C847.77 204.937 844.155 210.746 844.205 211.352C844.219 211.52 844.843 211.228 844.904 211.212C845.343 211.095 845.824 211.046 846.275 210.994C846.777 210.936 846.503 211.736 846.589 212.05C846.685 212.4 846.659 213.023 846.983 213.255C847.826 213.857 848.779 213.204 849.591 212.967C850.376 212.737 851.191 214.4 851.643 215C851.938 215.391 851.861 215.819 852.073 216.17C852.244 216.453 852.888 216.313 853.167 216.327C853.9 216.363 854.104 216.417 854.861 216.091C855.208 215.942 856.867 214.971 857.038 215.629C857.377 216.927 857.099 218.552 856.976 219.871C856.917 220.499 858.658 220.232 858.956 220.176C859.445 220.085 859.715 219.846 860.139 220.168C860.896 220.741 861.278 221.249 862.29 221.189C863.459 221.12 864.537 220.524 865.678 220.29C866.038 220.216 866.762 220.851 867.138 220.979C867.596 221.136 868.469 221.377 868.492 221.948C868.523 222.747 869.244 223.141 870.015 223.222C870.996 223.326 871.167 223.427 871.951 223.903C872.532 224.256 873.143 224.529 873.797 224.724C874.044 224.797 874.541 224.834 874.747 225.003C875.05 225.253 875 225.574 875.141 225.867C875.599 226.815 876.661 227.993 877.543 228.599C877.889 228.837 877.883 229.107 878.152 229.315C879.197 230.118 880.613 230.544 881.8 231.122C882.858 231.637 883.997 231.831 885.071 232.283C886.187 232.752 887.366 232.951 888.557 233.129C888.978 233.192 903.28 234.808 903.682 235.023C904.576 235.502 891.679 234.859 892.689 235.023" stroke="#AD8888" stroke-width="0.5" stroke-linecap="round"/>
</g>
<g id="Vector 11" filter="url(#filter2_f_51:72)">
<path d="M815.732 215.693C817.179 219.377 816.671 220.372 820.337 220.922C824.125 221.491 827.26 220.735 830.954 220.735C832.257 220.735 831.702 222.431 831.8 223.257C831.986 224.83 836.409 224.056 837.532 224.097C839.196 224.159 838.337 229.159 840.445 230.447C841.877 231.323 843.375 230.668 844.297 232.502C844.731 233.364 843.974 234.944 845.331 235.023C849.486 235.266 847.912 238.874 849.935 239.879C851.19 240.503 853.363 239.392 854.445 240.253C855.684 241.238 857.397 241.69 859.05 241.747C862.235 241.856 863.633 243.96 865.627 246.603C867.363 248.904 872.328 248.471 874.93 248.471" stroke="#AD8888" stroke-width="0.5" stroke-linecap="round"/>
</g>
<g id="Vector 12" filter="url(#filter3_f_51:72)">
<path d="M831.8 215.693C833.22 219.308 832.659 220.827 835.371 218.401C837.132 216.825 837.366 217.863 838.566 219.054C840.34 220.818 847.868 220.673 847.868 222.837C847.868 227.381 850.529 226.619 854.304 226.619C855.884 226.619 859.707 224.845 859.707 227.039C859.707 228.037 859.154 230.739 860.553 230.821C861.709 230.889 864.59 230.248 865.439 231.008C866.752 232.182 866.562 232.752 868.822 233.529C870.707 234.178 871.431 234.749 871.547 236.704C871.617 237.884 874.813 239.121 875.775 239.599C878.862 241.133 880.672 245.949 883.809 245.949C884.802 245.949 886.769 244.636 886.769 245.623C886.769 247.459 887.975 247.879 888.46 245.949" stroke="#AD8888" stroke-width="0.5" stroke-linecap="round"/>
</g>
</g>
<g id="Keyboard">
<path id="Rectangle 5" d="M355.043 270.553C356.661 263.221 363.159 258 370.668 258H760.562C768.071 258 774.569 263.221 776.187 270.553L798.632 372.294C800.835 382.28 793.234 391.741 783.008 391.741H348.222C337.996 391.741 330.395 382.28 332.598 372.294L355.043 270.553Z" fill="black" fill-opacity="0.38"/>
<path id="Rectangle 58_2" d="M336.736 259.664C338.354 252.332 344.852 247.111 352.36 247.111H742.255C749.763 247.111 756.261 252.332 757.879 259.664L780.325 361.405C782.528 371.391 774.926 380.852 764.7 380.852H329.915C319.689 380.852 312.087 371.391 314.29 361.405L336.736 259.664Z" fill="#C4C4C4"/>
<path id="Rectangle 6" d="M336.628 259.488C338.313 252.241 344.772 247.111 352.213 247.111H742.402C749.843 247.111 756.302 252.241 757.987 259.488L780.053 354.414C782.386 364.447 774.769 374.037 764.469 374.037H330.146C319.846 374.037 312.229 364.447 314.562 354.414L336.628 259.488Z" fill="#EAE0E0"/>
<g id="Rectangle 7">
<path d="M361.011 267.891C361.505 266.179 363.072 265 364.854 265H381.384C383.918 265 385.813 267.326 385.301 269.808L384.843 272.03C384.46 273.889 382.823 275.222 380.925 275.222H364.212C361.55 275.222 359.631 272.671 360.369 270.113L361.011 267.891Z" fill="black"/>
<path d="M361.011 267.891C361.505 266.179 363.072 265 364.854 265H381.384C383.918 265 385.813 267.326 385.301 269.808L384.843 272.03C384.46 273.889 382.823 275.222 380.925 275.222H364.212C361.55 275.222 359.631 272.671 360.369 270.113L361.011 267.891Z" fill="black"/>
<path d="M361.011 267.891C361.505 266.179 363.072 265 364.854 265H381.384C383.918 265 385.813 267.326 385.301 269.808L384.843 272.03C384.46 273.889 382.823 275.222 380.925 275.222H364.212C361.55 275.222 359.631 272.671 360.369 270.113L361.011 267.891Z" fill="black"/>
</g>
<g id="Rectangle 19">
<path d="M358.235 279.924C358.692 278.159 360.285 276.926 362.108 276.926H397.888C400.097 276.926 401.888 278.717 401.888 280.926V283.148C401.888 285.357 400.097 287.148 397.888 287.148H361.533C358.917 287.148 357.005 284.678 357.66 282.146L358.235 279.924Z" fill="black"/>
<path d="M358.235 279.924C358.692 278.159 360.285 276.926 362.108 276.926H397.888C400.097 276.926 401.888 278.717 401.888 280.926V283.148C401.888 285.357 400.097 287.148 397.888 287.148H361.533C358.917 287.148 357.005 284.678 357.66 282.146L358.235 279.924Z" fill="black"/>
<path d="M358.235 279.924C358.692 278.159 360.285 276.926 362.108 276.926H397.888C400.097 276.926 401.888 278.717 401.888 280.926V283.148C401.888 285.357 400.097 287.148 397.888 287.148H361.533C358.917 287.148 357.005 284.678 357.66 282.146L358.235 279.924Z" fill="black"/>
</g>
<g id="Rectangle 31">
<path d="M357.427 290.829C358.062 289.37 359.502 288.426 361.094 288.426H408.225C410.839 288.426 412.75 290.892 412.098 293.424L411.416 296.072C410.961 297.839 409.367 299.074 407.542 299.074H359.941C357.059 299.074 355.123 296.119 356.274 293.477L357.427 290.829Z" fill="black"/>
<path d="M357.427 290.829C358.062 289.37 359.502 288.426 361.094 288.426H408.225C410.839 288.426 412.75 290.892 412.098 293.424L411.416 296.072C410.961 297.839 409.367 299.074 407.542 299.074H359.941C357.059 299.074 355.123 296.119 356.274 293.477L357.427 290.829Z" fill="black"/>
<path d="M357.427 290.829C358.062 289.37 359.502 288.426 361.094 288.426H408.225C410.839 288.426 412.75 290.892 412.098 293.424L411.416 296.072C410.961 297.839 409.367 299.074 407.542 299.074H359.941C357.059 299.074 355.123 296.119 356.274 293.477L357.427 290.829Z" fill="black"/>
</g>
<g id="Rectangle 43">
<path d="M353.424 303.668C353.918 301.956 355.485 300.778 357.267 300.778H373.797C376.33 300.778 378.226 303.104 377.714 305.585L377.256 307.808C376.873 309.666 375.236 311 373.338 311H356.625C353.963 311 352.044 308.448 352.782 305.891L353.424 303.668Z" fill="black"/>
<path d="M353.424 303.668C353.918 301.956 355.485 300.778 357.267 300.778H373.797C376.33 300.778 378.226 303.104 377.714 305.585L377.256 307.808C376.873 309.666 375.236 311 373.338 311H356.625C353.963 311 352.044 308.448 352.782 305.891L353.424 303.668Z" fill="black"/>
<path d="M353.424 303.668C353.918 301.956 355.485 300.778 357.267 300.778H373.797C376.33 300.778 378.226 303.104 377.714 305.585L377.256 307.808C376.873 309.666 375.236 311 373.338 311H356.625C353.963 311 352.044 308.448 352.782 305.891L353.424 303.668Z" fill="black"/>
</g>
<g id="Rectangle 8">
<path d="M391.359 267.891C391.853 266.179 393.42 265 395.202 265H411.732C414.266 265 416.161 267.326 415.65 269.808L415.191 272.03C414.808 273.889 413.172 275.222 411.274 275.222H394.561C391.899 275.222 389.98 272.671 390.718 270.113L391.359 267.891Z" fill="black"/>
<path d="M391.359 267.891C391.853 266.179 393.42 265 395.202 265H411.732C414.266 265 416.161 267.326 415.65 269.808L415.191 272.03C414.808 273.889 413.172 275.222 411.274 275.222H394.561C391.899 275.222 389.98 272.671 390.718 270.113L391.359 267.891Z" fill="black"/>
<path d="M391.359 267.891C391.853 266.179 393.42 265 395.202 265H411.732C414.266 265 416.161 267.326 415.65 269.808L415.191 272.03C414.808 273.889 413.172 275.222 411.274 275.222H394.561C391.899 275.222 389.98 272.671 390.718 270.113L391.359 267.891Z" fill="black"/>
</g>
<g id="Rectangle 20">
<path d="M407.376 279.817C407.871 278.105 409.438 276.926 411.219 276.926H427.749C430.283 276.926 432.179 279.252 431.667 281.734L431.209 283.956C430.825 285.815 429.189 287.148 427.291 287.148H410.578C407.916 287.148 405.997 284.596 406.735 282.039L407.376 279.817Z" fill="black"/>
<path d="M407.376 279.817C407.871 278.105 409.438 276.926 411.219 276.926H427.749C430.283 276.926 432.179 279.252 431.667 281.734L431.209 283.956C430.825 285.815 429.189 287.148 427.291 287.148H410.578C407.916 287.148 405.997 284.596 406.735 282.039L407.376 279.817Z" fill="black"/>
<path d="M407.376 279.817C407.871 278.105 409.438 276.926 411.219 276.926H427.749C430.283 276.926 432.179 279.252 431.667 281.734L431.209 283.956C430.825 285.815 429.189 287.148 427.291 287.148H410.578C407.916 287.148 405.997 284.596 406.735 282.039L407.376 279.817Z" fill="black"/>
</g>
<g id="Rectangle 32">
<path d="M420.865 291.743C421.359 290.031 422.926 288.852 424.708 288.852H441.237C443.771 288.852 445.667 291.178 445.155 293.66L444.697 295.882C444.314 297.741 442.677 299.074 440.779 299.074H424.066C421.404 299.074 419.485 296.522 420.223 293.965L420.865 291.743Z" fill="black"/>
<path d="M420.865 291.743C421.359 290.031 422.926 288.852 424.708 288.852H441.237C443.771 288.852 445.667 291.178 445.155 293.66L444.697 295.882C444.314 297.741 442.677 299.074 440.779 299.074H424.066C421.404 299.074 419.485 296.522 420.223 293.965L420.865 291.743Z" fill="black"/>
<path d="M420.865 291.743C421.359 290.031 422.926 288.852 424.708 288.852H441.237C443.771 288.852 445.667 291.178 445.155 293.66L444.697 295.882C444.314 297.741 442.677 299.074 440.779 299.074H424.066C421.404 299.074 419.485 296.522 420.223 293.965L420.865 291.743Z" fill="black"/>
</g>
<g id="Rectangle 44">
<path d="M383.772 303.668C384.266 301.956 385.833 300.778 387.615 300.778H404.145C406.679 300.778 408.574 303.104 408.063 305.585L407.604 307.808C407.221 309.666 405.585 311 403.687 311H386.974C384.312 311 382.392 308.448 383.131 305.891L383.772 303.668Z" fill="black"/>
<path d="M383.772 303.668C384.266 301.956 385.833 300.778 387.615 300.778H404.145C406.679 300.778 408.574 303.104 408.063 305.585L407.604 307.808C407.221 309.666 405.585 311 403.687 311H386.974C384.312 311 382.392 308.448 383.131 305.891L383.772 303.668Z" fill="black"/>
<path d="M383.772 303.668C384.266 301.956 385.833 300.778 387.615 300.778H404.145C406.679 300.778 408.574 303.104 408.063 305.585L407.604 307.808C407.221 309.666 405.585 311 403.687 311H386.974C384.312 311 382.392 308.448 383.131 305.891L383.772 303.668Z" fill="black"/>
</g>
<g id="Rectangle 9">
<path d="M421.708 267.891C422.202 266.179 423.769 265 425.551 265H442.08C444.614 265 446.51 267.326 445.998 269.808L445.54 272.03C445.157 273.889 443.52 275.222 441.622 275.222H424.909C422.247 275.222 420.328 272.671 421.066 270.113L421.708 267.891Z" fill="black"/>
<path d="M421.708 267.891C422.202 266.179 423.769 265 425.551 265H442.08C444.614 265 446.51 267.326 445.998 269.808L445.54 272.03C445.157 273.889 443.52 275.222 441.622 275.222H424.909C422.247 275.222 420.328 272.671 421.066 270.113L421.708 267.891Z" fill="black"/>
<path d="M421.708 267.891C422.202 266.179 423.769 265 425.551 265H442.08C444.614 265 446.51 267.326 445.998 269.808L445.54 272.03C445.157 273.889 443.52 275.222 441.622 275.222H424.909C422.247 275.222 420.328 272.671 421.066 270.113L421.708 267.891Z" fill="black"/>
</g>
<g id="Rectangle 21">
<path d="M437.725 279.817C438.219 278.105 439.786 276.926 441.568 276.926H458.098C460.632 276.926 462.527 279.252 462.015 281.734L461.557 283.956C461.174 285.815 459.537 287.148 457.639 287.148H440.926C438.264 287.148 436.345 284.596 437.083 282.039L437.725 279.817Z" fill="black"/>
<path d="M437.725 279.817C438.219 278.105 439.786 276.926 441.568 276.926H458.098C460.632 276.926 462.527 279.252 462.015 281.734L461.557 283.956C461.174 285.815 459.537 287.148 457.639 287.148H440.926C438.264 287.148 436.345 284.596 437.083 282.039L437.725 279.817Z" fill="black"/>
<path d="M437.725 279.817C438.219 278.105 439.786 276.926 441.568 276.926H458.098C460.632 276.926 462.527 279.252 462.015 281.734L461.557 283.956C461.174 285.815 459.537 287.148 457.639 287.148H440.926C438.264 287.148 436.345 284.596 437.083 282.039L437.725 279.817Z" fill="black"/>
</g>
<g id="Rectangle 33">
<path d="M451.213 291.743C451.707 290.031 453.274 288.852 455.056 288.852H471.586C474.12 288.852 476.015 291.178 475.503 293.66L475.045 295.882C474.662 297.741 473.025 299.074 471.128 299.074H454.415C451.753 299.074 449.833 296.522 450.572 293.965L451.213 291.743Z" fill="black"/>
<path d="M451.213 291.743C451.707 290.031 453.274 288.852 455.056 288.852H471.586C474.12 288.852 476.015 291.178 475.503 293.66L475.045 295.882C474.662 297.741 473.025 299.074 471.128 299.074H454.415C451.753 299.074 449.833 296.522 450.572 293.965L451.213 291.743Z" fill="black"/>
<path d="M451.213 291.743C451.707 290.031 453.274 288.852 455.056 288.852H471.586C474.12 288.852 476.015 291.178 475.503 293.66L475.045 295.882C474.662 297.741 473.025 299.074 471.128 299.074H454.415C451.753 299.074 449.833 296.522 450.572 293.965L451.213 291.743Z" fill="black"/>
</g>
<g id="Rectangle 45">
<path d="M414.12 303.668C414.615 301.956 416.182 300.778 417.964 300.778H434.493C437.027 300.778 438.923 303.104 438.411 305.585L437.953 307.808C437.57 309.666 435.933 311 434.035 311H417.322C414.66 311 412.741 308.448 413.479 305.891L414.12 303.668Z" fill="black"/>
<path d="M414.12 303.668C414.615 301.956 416.182 300.778 417.964 300.778H434.493C437.027 300.778 438.923 303.104 438.411 305.585L437.953 307.808C437.57 309.666 435.933 311 434.035 311H417.322C414.66 311 412.741 308.448 413.479 305.891L414.12 303.668Z" fill="black"/>
<path d="M414.12 303.668C414.615 301.956 416.182 300.778 417.964 300.778H434.493C437.027 300.778 438.923 303.104 438.411 305.585L437.953 307.808C437.57 309.666 435.933 311 434.035 311H417.322C414.66 311 412.741 308.448 413.479 305.891L414.12 303.668Z" fill="black"/>
</g>
<g id="Rectangle 10">
<path d="M452.056 267.891C452.55 266.179 454.117 265 455.899 265H472.429C474.963 265 476.858 267.326 476.346 269.808L475.888 272.03C475.505 273.889 473.868 275.222 471.971 275.222H455.258C452.596 275.222 450.676 272.671 451.415 270.113L452.056 267.891Z" fill="black"/>
<path d="M452.056 267.891C452.55 266.179 454.117 265 455.899 265H472.429C474.963 265 476.858 267.326 476.346 269.808L475.888 272.03C475.505 273.889 473.868 275.222 471.971 275.222H455.258C452.596 275.222 450.676 272.671 451.415 270.113L452.056 267.891Z" fill="black"/>
<path d="M452.056 267.891C452.55 266.179 454.117 265 455.899 265H472.429C474.963 265 476.858 267.326 476.346 269.808L475.888 272.03C475.505 273.889 473.868 275.222 471.971 275.222H455.258C452.596 275.222 450.676 272.671 451.415 270.113L452.056 267.891Z" fill="black"/>
</g>
<g id="Rectangle 22">
<path d="M468.073 279.817C468.567 278.105 470.134 276.926 471.916 276.926H488.446C490.98 276.926 492.875 279.252 492.364 281.734L491.905 283.956C491.522 285.815 489.886 287.148 487.988 287.148H471.275C468.613 287.148 466.694 284.596 467.432 282.039L468.073 279.817Z" fill="black"/>
<path d="M468.073 279.817C468.567 278.105 470.134 276.926 471.916 276.926H488.446C490.98 276.926 492.875 279.252 492.364 281.734L491.905 283.956C491.522 285.815 489.886 287.148 487.988 287.148H471.275C468.613 287.148 466.694 284.596 467.432 282.039L468.073 279.817Z" fill="black"/>
<path d="M468.073 279.817C468.567 278.105 470.134 276.926 471.916 276.926H488.446C490.98 276.926 492.875 279.252 492.364 281.734L491.905 283.956C491.522 285.815 489.886 287.148 487.988 287.148H471.275C468.613 287.148 466.694 284.596 467.432 282.039L468.073 279.817Z" fill="black"/>
</g>
<g id="Rectangle 34">
<path d="M481.561 291.743C482.055 290.031 483.623 288.852 485.404 288.852H501.934C504.468 288.852 506.363 291.178 505.852 293.66L505.394 295.882C505.01 297.741 503.374 299.074 501.476 299.074H484.763C482.101 299.074 480.182 296.522 480.92 293.965L481.561 291.743Z" fill="black"/>
<path d="M481.561 291.743C482.055 290.031 483.623 288.852 485.404 288.852H501.934C504.468 288.852 506.363 291.178 505.852 293.66L505.394 295.882C505.01 297.741 503.374 299.074 501.476 299.074H484.763C482.101 299.074 480.182 296.522 480.92 293.965L481.561 291.743Z" fill="black"/>
<path d="M481.561 291.743C482.055 290.031 483.623 288.852 485.404 288.852H501.934C504.468 288.852 506.363 291.178 505.852 293.66L505.394 295.882C505.01 297.741 503.374 299.074 501.476 299.074H484.763C482.101 299.074 480.182 296.522 480.92 293.965L481.561 291.743Z" fill="black"/>
</g>
<g id="Rectangle 11">
<path d="M482.404 267.891C482.898 266.179 484.466 265 486.247 265H502.777C505.311 265 507.206 267.326 506.695 269.808L506.237 272.03C505.853 273.889 504.217 275.222 502.319 275.222H485.606C482.944 275.222 481.025 272.671 481.763 270.113L482.404 267.891Z" fill="black"/>
<path d="M482.404 267.891C482.898 266.179 484.466 265 486.247 265H502.777C505.311 265 507.206 267.326 506.695 269.808L506.237 272.03C505.853 273.889 504.217 275.222 502.319 275.222H485.606C482.944 275.222 481.025 272.671 481.763 270.113L482.404 267.891Z" fill="black"/>
<path d="M482.404 267.891C482.898 266.179 484.466 265 486.247 265H502.777C505.311 265 507.206 267.326 506.695 269.808L506.237 272.03C505.853 273.889 504.217 275.222 502.319 275.222H485.606C482.944 275.222 481.025 272.671 481.763 270.113L482.404 267.891Z" fill="black"/>
</g>
<g id="Rectangle 23">
<path d="M498.422 279.817C498.916 278.105 500.483 276.926 502.265 276.926H518.794C521.328 276.926 523.224 279.252 522.712 281.734L522.254 283.956C521.871 285.815 520.234 287.148 518.336 287.148H501.623C498.961 287.148 497.042 284.596 497.78 282.039L498.422 279.817Z" fill="black"/>
<path d="M498.422 279.817C498.916 278.105 500.483 276.926 502.265 276.926H518.794C521.328 276.926 523.224 279.252 522.712 281.734L522.254 283.956C521.871 285.815 520.234 287.148 518.336 287.148H501.623C498.961 287.148 497.042 284.596 497.78 282.039L498.422 279.817Z" fill="black"/>
<path d="M498.422 279.817C498.916 278.105 500.483 276.926 502.265 276.926H518.794C521.328 276.926 523.224 279.252 522.712 281.734L522.254 283.956C521.871 285.815 520.234 287.148 518.336 287.148H501.623C498.961 287.148 497.042 284.596 497.78 282.039L498.422 279.817Z" fill="black"/>
</g>
<g id="Rectangle 35">
<path d="M511.91 291.743C512.404 290.031 513.971 288.852 515.753 288.852H532.283C534.816 288.852 536.712 291.178 536.2 293.66L535.742 295.882C535.359 297.741 533.722 299.074 531.824 299.074H515.111C512.449 299.074 510.53 296.522 511.268 293.965L511.91 291.743Z" fill="black"/>
<path d="M511.91 291.743C512.404 290.031 513.971 288.852 515.753 288.852H532.283C534.816 288.852 536.712 291.178 536.2 293.66L535.742 295.882C535.359 297.741 533.722 299.074 531.824 299.074H515.111C512.449 299.074 510.53 296.522 511.268 293.965L511.91 291.743Z" fill="black"/>
<path d="M511.91 291.743C512.404 290.031 513.971 288.852 515.753 288.852H532.283C534.816 288.852 536.712 291.178 536.2 293.66L535.742 295.882C535.359 297.741 533.722 299.074 531.824 299.074H515.111C512.449 299.074 510.53 296.522 511.268 293.965L511.91 291.743Z" fill="black"/>
</g>
<g id="Rectangle 12">
<path d="M510.637 269C510.637 266.791 512.427 265 514.637 265H531.927C534.136 265 535.927 266.791 535.927 269V271.222C535.927 273.431 534.136 275.222 531.927 275.222H514.637C512.427 275.222 510.637 273.431 510.637 271.222V269Z" fill="black"/>
<path d="M510.637 269C510.637 266.791 512.427 265 514.637 265H531.927C534.136 265 535.927 266.791 535.927 269V271.222C535.927 273.431 534.136 275.222 531.927 275.222H514.637C512.427 275.222 510.637 273.431 510.637 271.222V269Z" fill="black"/>
<path d="M510.637 269C510.637 266.791 512.427 265 514.637 265H531.927C534.136 265 535.927 266.791 535.927 269V271.222C535.927 273.431 534.136 275.222 531.927 275.222H514.637C512.427 275.222 510.637 273.431 510.637 271.222V269Z" fill="black"/>
</g>
<g id="Rectangle 24">
<path d="M526.654 280.926C526.654 278.717 528.445 276.926 530.654 276.926H547.944C550.153 276.926 551.944 278.717 551.944 280.926V283.148C551.944 285.357 550.153 287.148 547.944 287.148H530.654C528.445 287.148 526.654 285.357 526.654 283.148V280.926Z" fill="black"/>
<path d="M526.654 280.926C526.654 278.717 528.445 276.926 530.654 276.926H547.944C550.153 276.926 551.944 278.717 551.944 280.926V283.148C551.944 285.357 550.153 287.148 547.944 287.148H530.654C528.445 287.148 526.654 285.357 526.654 283.148V280.926Z" fill="black"/>
<path d="M526.654 280.926C526.654 278.717 528.445 276.926 530.654 276.926H547.944C550.153 276.926 551.944 278.717 551.944 280.926V283.148C551.944 285.357 550.153 287.148 547.944 287.148H530.654C528.445 287.148 526.654 285.357 526.654 283.148V280.926Z" fill="black"/>
</g>
<g id="Rectangle 36">
<path d="M540.142 292.852C540.142 290.643 541.933 288.852 544.142 288.852H561.432C563.641 288.852 565.432 290.643 565.432 292.852V295.074C565.432 297.283 563.641 299.074 561.432 299.074H544.142C541.933 299.074 540.142 297.283 540.142 295.074V292.852Z" fill="black"/>
<path d="M540.142 292.852C540.142 290.643 541.933 288.852 544.142 288.852H561.432C563.641 288.852 565.432 290.643 565.432 292.852V295.074C565.432 297.283 563.641 299.074 561.432 299.074H544.142C541.933 299.074 540.142 297.283 540.142 295.074V292.852Z" fill="black"/>
<path d="M540.142 292.852C540.142 290.643 541.933 288.852 544.142 288.852H561.432C563.641 288.852 565.432 290.643 565.432 292.852V295.074C565.432 297.283 563.641 299.074 561.432 299.074H544.142C541.933 299.074 540.142 297.283 540.142 295.074V292.852Z" fill="black"/>
</g>
<g id="Rectangle 13">
<path d="M540.985 269C540.985 266.791 542.776 265 544.985 265H562.275C564.484 265 566.275 266.791 566.275 269V271.222C566.275 273.431 564.484 275.222 562.275 275.222H544.985C542.776 275.222 540.985 273.431 540.985 271.222V269Z" fill="black"/>
<path d="M540.985 269C540.985 266.791 542.776 265 544.985 265H562.275C564.484 265 566.275 266.791 566.275 269V271.222C566.275 273.431 564.484 275.222 562.275 275.222H544.985C542.776 275.222 540.985 273.431 540.985 271.222V269Z" fill="black"/>
<path d="M540.985 269C540.985 266.791 542.776 265 544.985 265H562.275C564.484 265 566.275 266.791 566.275 269V271.222C566.275 273.431 564.484 275.222 562.275 275.222H544.985C542.776 275.222 540.985 273.431 540.985 271.222V269Z" fill="black"/>
</g>
<g id="Rectangle 25">
<path d="M557.002 280.926C557.002 278.717 558.793 276.926 561.002 276.926H578.292C580.502 276.926 582.292 278.717 582.292 280.926V283.148C582.292 285.357 580.502 287.148 578.292 287.148H561.002C558.793 287.148 557.002 285.357 557.002 283.148V280.926Z" fill="black"/>
<path d="M557.002 280.926C557.002 278.717 558.793 276.926 561.002 276.926H578.292C580.502 276.926 582.292 278.717 582.292 280.926V283.148C582.292 285.357 580.502 287.148 578.292 287.148H561.002C558.793 287.148 557.002 285.357 557.002 283.148V280.926Z" fill="black"/>
<path d="M557.002 280.926C557.002 278.717 558.793 276.926 561.002 276.926H578.292C580.502 276.926 582.292 278.717 582.292 280.926V283.148C582.292 285.357 580.502 287.148 578.292 287.148H561.002C558.793 287.148 557.002 285.357 557.002 283.148V280.926Z" fill="black"/>
</g>
<g id="Rectangle 37">
<path d="M570.49 292.852C570.49 290.643 572.281 288.852 574.49 288.852H591.781C593.99 288.852 595.781 290.643 595.781 292.852V295.074C595.781 297.283 593.99 299.074 591.781 299.074H574.49C572.281 299.074 570.49 297.283 570.49 295.074V292.852Z" fill="black"/>
<path d="M570.49 292.852C570.49 290.643 572.281 288.852 574.49 288.852H591.781C593.99 288.852 595.781 290.643 595.781 292.852V295.074C595.781 297.283 593.99 299.074 591.781 299.074H574.49C572.281 299.074 570.49 297.283 570.49 295.074V292.852Z" fill="black"/>
<path d="M570.49 292.852C570.49 290.643 572.281 288.852 574.49 288.852H591.781C593.99 288.852 595.781 290.643 595.781 292.852V295.074C595.781 297.283 593.99 299.074 591.781 299.074H574.49C572.281 299.074 570.49 297.283 570.49 295.074V292.852Z" fill="black"/>
</g>
<g id="Rectangle 14">
<path d="M570.414 269.651C570.013 267.215 571.892 265 574.361 265H591.257C593.155 265 594.791 266.334 595.174 268.192L595.632 270.415C596.144 272.896 594.249 275.222 591.715 275.222H574.728C572.77 275.222 571.1 273.805 570.781 271.873L570.414 269.651Z" fill="black"/>
<path d="M570.414 269.651C570.013 267.215 571.892 265 574.361 265H591.257C593.155 265 594.791 266.334 595.174 268.192L595.632 270.415C596.144 272.896 594.249 275.222 591.715 275.222H574.728C572.77 275.222 571.1 273.805 570.781 271.873L570.414 269.651Z" fill="black"/>
<path d="M570.414 269.651C570.013 267.215 571.892 265 574.361 265H591.257C593.155 265 594.791 266.334 595.174 268.192L595.632 270.415C596.144 272.896 594.249 275.222 591.715 275.222H574.728C572.77 275.222 571.1 273.805 570.781 271.873L570.414 269.651Z" fill="black"/>
</g>
<g id="Rectangle 26">
<path d="M586.432 281.577C586.03 279.141 587.909 276.926 590.378 276.926H607.274C609.172 276.926 610.808 278.259 611.192 280.118L611.65 282.34C612.161 284.822 610.266 287.148 607.732 287.148H590.745C588.787 287.148 587.117 285.731 586.798 283.799L586.432 281.577Z" fill="black"/>
<path d="M586.432 281.577C586.03 279.141 587.909 276.926 590.378 276.926H607.274C609.172 276.926 610.808 278.259 611.192 280.118L611.65 282.34C612.161 284.822 610.266 287.148 607.732 287.148H590.745C588.787 287.148 587.117 285.731 586.798 283.799L586.432 281.577Z" fill="black"/>
<path d="M586.432 281.577C586.03 279.141 587.909 276.926 590.378 276.926H607.274C609.172 276.926 610.808 278.259 611.192 280.118L611.65 282.34C612.161 284.822 610.266 287.148 607.732 287.148H590.745C588.787 287.148 587.117 285.731 586.798 283.799L586.432 281.577Z" fill="black"/>
</g>
<g id="Rectangle 38">
<path d="M599.92 293.503C599.518 291.067 601.397 288.852 603.866 288.852H620.762C622.66 288.852 624.296 290.185 624.68 292.044L625.138 294.266C625.649 296.748 623.754 299.074 621.22 299.074H604.233C602.275 299.074 600.605 297.657 600.286 295.725L599.92 293.503Z" fill="black"/>
<path d="M599.92 293.503C599.518 291.067 601.397 288.852 603.866 288.852H620.762C622.66 288.852 624.296 290.185 624.68 292.044L625.138 294.266C625.649 296.748 623.754 299.074 621.22 299.074H604.233C602.275 299.074 600.605 297.657 600.286 295.725L599.92 293.503Z" fill="black"/>
<path d="M599.92 293.503C599.518 291.067 601.397 288.852 603.866 288.852H620.762C622.66 288.852 624.296 290.185 624.68 292.044L625.138 294.266C625.649 296.748 623.754 299.074 621.22 299.074H604.233C602.275 299.074 600.605 297.657 600.286 295.725L599.92 293.503Z" fill="black"/>
</g>
<g id="Rectangle 15">
<path d="M600.973 269.491C600.678 267.105 602.539 265 604.943 265H621.605C623.503 265 625.139 266.334 625.523 268.192L625.981 270.415C626.492 272.896 624.597 275.222 622.063 275.222H605.217C603.198 275.222 601.496 273.717 601.248 271.713L600.973 269.491Z" fill="black"/>
<path d="M600.973 269.491C600.678 267.105 602.539 265 604.943 265H621.605C623.503 265 625.139 266.334 625.523 268.192L625.981 270.415C626.492 272.896 624.597 275.222 622.063 275.222H605.217C603.198 275.222 601.496 273.717 601.248 271.713L600.973 269.491Z" fill="black"/>
<path d="M600.973 269.491C600.678 267.105 602.539 265 604.943 265H621.605C623.503 265 625.139 266.334 625.523 268.192L625.981 270.415C626.492 272.896 624.597 275.222 622.063 275.222H605.217C603.198 275.222 601.496 273.717 601.248 271.713L600.973 269.491Z" fill="black"/>
</g>
<g id="Rectangle 27">
<path d="M616.99 281.417C616.695 279.031 618.556 276.926 620.96 276.926H637.622C639.52 276.926 641.157 278.259 641.54 280.118L641.998 282.34C642.51 284.822 640.614 287.148 638.08 287.148H621.235C619.215 287.148 617.513 285.643 617.265 283.639L616.99 281.417Z" fill="black"/>
<path d="M616.99 281.417C616.695 279.031 618.556 276.926 620.96 276.926H637.622C639.52 276.926 641.157 278.259 641.54 280.118L641.998 282.34C642.51 284.822 640.614 287.148 638.08 287.148H621.235C619.215 287.148 617.513 285.643 617.265 283.639L616.99 281.417Z" fill="black"/>
<path d="M616.99 281.417C616.695 279.031 618.556 276.926 620.96 276.926H637.622C639.52 276.926 641.157 278.259 641.54 280.118L641.998 282.34C642.51 284.822 640.614 287.148 638.08 287.148H621.235C619.215 287.148 617.513 285.643 617.265 283.639L616.99 281.417Z" fill="black"/>
</g>
<g id="Rectangle 39">
<path d="M630.478 293.343C630.183 290.957 632.044 288.852 634.448 288.852H651.11C653.008 288.852 654.645 290.185 655.028 292.044L655.486 294.266C655.998 296.748 654.102 299.074 651.569 299.074H634.723C632.704 299.074 631.001 297.569 630.753 295.565L630.478 293.343Z" fill="black"/>
<path d="M630.478 293.343C630.183 290.957 632.044 288.852 634.448 288.852H651.11C653.008 288.852 654.645 290.185 655.028 292.044L655.486 294.266C655.998 296.748 654.102 299.074 651.569 299.074H634.723C632.704 299.074 631.001 297.569 630.753 295.565L630.478 293.343Z" fill="black"/>
<path d="M630.478 293.343C630.183 290.957 632.044 288.852 634.448 288.852H651.11C653.008 288.852 654.645 290.185 655.028 292.044L655.486 294.266C655.998 296.748 654.102 299.074 651.569 299.074H634.723C632.704 299.074 631.001 297.569 630.753 295.565L630.478 293.343Z" fill="black"/>
</g>
<g id="Rectangle 51">
<path d="M593.386 305.269C593.091 302.883 594.951 300.778 597.355 300.778H614.018C615.916 300.778 617.552 302.111 617.936 303.97L618.394 306.192C618.905 308.674 617.01 311 614.476 311H597.63C595.611 311 593.908 309.495 593.661 307.491L593.386 305.269Z" fill="black"/>
<path d="M593.386 305.269C593.091 302.883 594.951 300.778 597.355 300.778H614.018C615.916 300.778 617.552 302.111 617.936 303.97L618.394 306.192C618.905 308.674 617.01 311 614.476 311H597.63C595.611 311 593.908 309.495 593.661 307.491L593.386 305.269Z" fill="black"/>
<path d="M593.386 305.269C593.091 302.883 594.951 300.778 597.355 300.778H614.018C615.916 300.778 617.552 302.111 617.936 303.97L618.394 306.192C618.905 308.674 617.01 311 614.476 311H597.63C595.611 311 593.908 309.495 593.661 307.491L593.386 305.269Z" fill="black"/>
</g>
<g id="Rectangle 16">
<path d="M629.214 269.491C628.918 267.105 630.779 265 633.183 265H649.846C651.744 265 653.38 266.334 653.764 268.192L654.222 270.415C654.733 272.896 652.838 275.222 650.304 275.222H633.458C631.439 275.222 629.736 273.717 629.489 271.713L629.214 269.491Z" fill="black"/>
<path d="M629.214 269.491C628.918 267.105 630.779 265 633.183 265H649.846C651.744 265 653.38 266.334 653.764 268.192L654.222 270.415C654.733 272.896 652.838 275.222 650.304 275.222H633.458C631.439 275.222 629.736 273.717 629.489 271.713L629.214 269.491Z" fill="black"/>
<path d="M629.214 269.491C628.918 267.105 630.779 265 633.183 265H649.846C651.744 265 653.38 266.334 653.764 268.192L654.222 270.415C654.733 272.896 652.838 275.222 650.304 275.222H633.458C631.439 275.222 629.736 273.717 629.489 271.713L629.214 269.491Z" fill="black"/>
</g>
<g id="Rectangle 28">
<path d="M645.231 281.417C644.936 279.031 646.797 276.926 649.201 276.926H665.863C667.761 276.926 669.397 278.259 669.781 280.118L670.239 282.34C670.751 284.822 668.855 287.148 666.321 287.148H649.475C647.456 287.148 645.754 285.643 645.506 283.639L645.231 281.417Z" fill="black"/>
<path d="M645.231 281.417C644.936 279.031 646.797 276.926 649.201 276.926H665.863C667.761 276.926 669.397 278.259 669.781 280.118L670.239 282.34C670.751 284.822 668.855 287.148 666.321 287.148H649.475C647.456 287.148 645.754 285.643 645.506 283.639L645.231 281.417Z" fill="black"/>
<path d="M645.231 281.417C644.936 279.031 646.797 276.926 649.201 276.926H665.863C667.761 276.926 669.397 278.259 669.781 280.118L670.239 282.34C670.751 284.822 668.855 287.148 666.321 287.148H649.475C647.456 287.148 645.754 285.643 645.506 283.639L645.231 281.417Z" fill="black"/>
</g>
<g id="Rectangle 40">
<path d="M658.719 293.343C658.424 290.957 660.285 288.852 662.689 288.852H679.351C681.249 288.852 682.886 290.185 683.269 292.044L683.727 294.266C684.239 296.748 682.343 299.074 679.81 299.074H662.964C660.944 299.074 659.242 297.569 658.994 295.565L658.719 293.343Z" fill="black"/>
<path d="M658.719 293.343C658.424 290.957 660.285 288.852 662.689 288.852H679.351C681.249 288.852 682.886 290.185 683.269 292.044L683.727 294.266C684.239 296.748 682.343 299.074 679.81 299.074H662.964C660.944 299.074 659.242 297.569 658.994 295.565L658.719 293.343Z" fill="black"/>
<path d="M658.719 293.343C658.424 290.957 660.285 288.852 662.689 288.852H679.351C681.249 288.852 682.886 290.185 683.269 292.044L683.727 294.266C684.239 296.748 682.343 299.074 679.81 299.074H662.964C660.944 299.074 659.242 297.569 658.994 295.565L658.719 293.343Z" fill="black"/>
</g>
<g id="Rectangle 52">
<path d="M621.627 305.269C621.331 302.883 623.192 300.778 625.596 300.778H642.259C644.157 300.778 645.793 302.111 646.176 303.97L646.635 306.192C647.146 308.674 645.251 311 642.717 311H625.871C623.852 311 622.149 309.495 621.901 307.491L621.627 305.269Z" fill="black"/>
<path d="M621.627 305.269C621.331 302.883 623.192 300.778 625.596 300.778H642.259C644.157 300.778 645.793 302.111 646.176 303.97L646.635 306.192C647.146 308.674 645.251 311 642.717 311H625.871C623.852 311 622.149 309.495 621.901 307.491L621.627 305.269Z" fill="black"/>
<path d="M621.627 305.269C621.331 302.883 623.192 300.778 625.596 300.778H642.259C644.157 300.778 645.793 302.111 646.176 303.97L646.635 306.192C647.146 308.674 645.251 311 642.717 311H625.871C623.852 311 622.149 309.495 621.901 307.491L621.627 305.269Z" fill="black"/>
</g>
<g id="Rectangle 17">
<path d="M657.455 269.491C657.159 267.105 659.02 265 661.424 265H678.087C679.985 265 681.621 266.334 682.004 268.192L682.463 270.415C682.974 272.896 681.079 275.222 678.545 275.222H661.699C659.68 275.222 657.977 273.717 657.729 271.713L657.455 269.491Z" fill="black"/>
<path d="M657.455 269.491C657.159 267.105 659.02 265 661.424 265H678.087C679.985 265 681.621 266.334 682.004 268.192L682.463 270.415C682.974 272.896 681.079 275.222 678.545 275.222H661.699C659.68 275.222 657.977 273.717 657.729 271.713L657.455 269.491Z" fill="black"/>
<path d="M657.455 269.491C657.159 267.105 659.02 265 661.424 265H678.087C679.985 265 681.621 266.334 682.004 268.192L682.463 270.415C682.974 272.896 681.079 275.222 678.545 275.222H661.699C659.68 275.222 657.977 273.717 657.729 271.713L657.455 269.491Z" fill="black"/>
</g>
<g id="Rectangle 29">
<path d="M673.472 281.417C673.177 279.031 675.038 276.926 677.441 276.926H694.104C696.002 276.926 697.638 278.259 698.022 280.118L698.48 282.34C698.991 284.822 697.096 287.148 694.562 287.148H677.716C675.697 287.148 673.995 285.643 673.747 283.639L673.472 281.417Z" fill="black"/>
<path d="M673.472 281.417C673.177 279.031 675.038 276.926 677.441 276.926H694.104C696.002 276.926 697.638 278.259 698.022 280.118L698.48 282.34C698.991 284.822 697.096 287.148 694.562 287.148H677.716C675.697 287.148 673.995 285.643 673.747 283.639L673.472 281.417Z" fill="black"/>
<path d="M673.472 281.417C673.177 279.031 675.038 276.926 677.441 276.926H694.104C696.002 276.926 697.638 278.259 698.022 280.118L698.48 282.34C698.991 284.822 697.096 287.148 694.562 287.148H677.716C675.697 287.148 673.995 285.643 673.747 283.639L673.472 281.417Z" fill="black"/>
</g>
<g id="Rectangle 41">
<path d="M697.079 293.652C696.573 291.173 698.468 288.852 700.998 288.852H733.592C735.305 288.852 736.827 289.942 737.379 291.563L738.135 293.785C739.019 296.38 737.09 299.074 734.349 299.074H701.452C699.551 299.074 697.913 297.737 697.533 295.874L697.079 293.652Z" fill="black"/>
<path d="M697.079 293.652C696.573 291.173 698.468 288.852 700.998 288.852H733.592C735.305 288.852 736.827 289.942 737.379 291.563L738.135 293.785C739.019 296.38 737.09 299.074 734.349 299.074H701.452C699.551 299.074 697.913 297.737 697.533 295.874L697.079 293.652Z" fill="black"/>
<path d="M697.079 293.652C696.573 291.173 698.468 288.852 700.998 288.852H733.592C735.305 288.852 736.827 289.942 737.379 291.563L738.135 293.785C739.019 296.38 737.09 299.074 734.349 299.074H701.452C699.551 299.074 697.913 297.737 697.533 295.874L697.079 293.652Z" fill="black"/>
</g>
<g id="Rectangle 53">
<path d="M649.867 305.269C649.572 302.883 651.433 300.778 653.837 300.778H670.5C672.397 300.778 674.034 302.111 674.417 303.97L674.875 306.192C675.387 308.674 673.492 311 670.958 311H654.112C652.093 311 650.39 309.495 650.142 307.491L649.867 305.269Z" fill="black"/>
<path d="M649.867 305.269C649.572 302.883 651.433 300.778 653.837 300.778H670.5C672.397 300.778 674.034 302.111 674.417 303.97L674.875 306.192C675.387 308.674 673.492 311 670.958 311H654.112C652.093 311 650.39 309.495 650.142 307.491L649.867 305.269Z" fill="black"/>
<path d="M649.867 305.269C649.572 302.883 651.433 300.778 653.837 300.778H670.5C672.397 300.778 674.034 302.111 674.417 303.97L674.875 306.192C675.387 308.674 673.492 311 670.958 311H654.112C652.093 311 650.39 309.495 650.142 307.491L649.867 305.269Z" fill="black"/>
</g>
<g id="Rectangle 18">
<path d="M687.917 269.874C687.357 267.374 689.259 265 691.82 265H728.287C729.957 265 731.451 266.037 732.034 267.602L732.864 269.824C733.839 272.438 731.906 275.222 729.116 275.222H692.318C690.445 275.222 688.823 273.923 688.414 272.096L687.917 269.874Z" fill="black"/>
<path d="M687.917 269.874C687.357 267.374 689.259 265 691.82 265H728.287C729.957 265 731.451 266.037 732.034 267.602L732.864 269.824C733.839 272.438 731.906 275.222 729.116 275.222H692.318C690.445 275.222 688.823 273.923 688.414 272.096L687.917 269.874Z" fill="black"/>
<path d="M687.917 269.874C687.357 267.374 689.259 265 691.82 265H728.287C729.957 265 731.451 266.037 732.034 267.602L732.864 269.824C733.839 272.438 731.906 275.222 729.116 275.222H692.318C690.445 275.222 688.823 273.923 688.414 272.096L687.917 269.874Z" fill="black"/>
</g>
<g id="Rectangle 30">
<path d="M710.172 281.44C709.862 279.047 711.726 276.926 714.139 276.926H731.97C733.854 276.926 735.482 278.24 735.88 280.081L736.36 282.304C736.898 284.795 735 287.148 732.45 287.148H714.427C712.416 287.148 710.718 285.656 710.46 283.662L710.172 281.44Z" fill="black"/>
<path d="M710.172 281.44C709.862 279.047 711.726 276.926 714.139 276.926H731.97C733.854 276.926 735.482 278.24 735.88 280.081L736.36 282.304C736.898 284.795 735 287.148 732.45 287.148H714.427C712.416 287.148 710.718 285.656 710.46 283.662L710.172 281.44Z" fill="black"/>
<path d="M710.172 281.44C709.862 279.047 711.726 276.926 714.139 276.926H731.97C733.854 276.926 735.482 278.24 735.88 280.081L736.36 282.304C736.898 284.795 735 287.148 732.45 287.148H714.427C712.416 287.148 710.718 285.656 710.46 283.662L710.172 281.44Z" fill="black"/>
</g>
<g id="Rectangle 54">
<path d="M679.883 305.338C679.543 302.93 681.412 300.778 683.844 300.778H704.011C705.867 300.778 707.479 302.054 707.905 303.86L708.428 306.083C709.02 308.594 707.115 311 704.535 311H684.158C682.165 311 680.476 309.533 680.198 307.56L679.883 305.338Z" fill="black"/>
<path d="M679.883 305.338C679.543 302.93 681.412 300.778 683.844 300.778H704.011C705.867 300.778 707.479 302.054 707.905 303.86L708.428 306.083C709.02 308.594 707.115 311 704.535 311H684.158C682.165 311 680.476 309.533 680.198 307.56L679.883 305.338Z" fill="black"/>
<path d="M679.883 305.338C679.543 302.93 681.412 300.778 683.844 300.778H704.011C705.867 300.778 707.479 302.054 707.905 303.86L708.428 306.083C709.02 308.594 707.115 311 704.535 311H684.158C682.165 311 680.476 309.533 680.198 307.56L679.883 305.338Z" fill="black"/>
</g>
<g id="Rectangle 55">
<path d="M713.914 309.555C713.445 308.174 714.472 306.741 715.931 306.741H739.657C740.424 306.741 741.133 307.154 741.51 307.822V307.822C742.313 309.242 741.288 311 739.657 311H715.931C715.018 311 714.207 310.419 713.914 309.555V309.555Z" fill="black"/>
<path d="M713.914 309.555C713.445 308.174 714.472 306.741 715.931 306.741H739.657C740.424 306.741 741.133 307.154 741.51 307.822V307.822C742.313 309.242 741.288 311 739.657 311H715.931C715.018 311 714.207 310.419 713.914 309.555V309.555Z" fill="black"/>
<path d="M713.914 309.555C713.445 308.174 714.472 306.741 715.931 306.741H739.657C740.424 306.741 741.133 307.154 741.51 307.822V307.822C742.313 309.242 741.288 311 739.657 311H715.931C715.018 311 714.207 310.419 713.914 309.555V309.555Z" fill="black"/>
</g>
<rect id="Rectangle 56" x="446.568" y="300.778" width="139.097" height="10.2222" rx="5.11111" fill="black"/>
<path id="Rectangle 57" d="M468.308 331C468.308 327.686 470.994 325 474.308 325H612.662C615.834 325 618.458 327.469 618.651 330.635L620.419 359.635C620.63 363.086 617.888 366 614.431 366H474.308C470.994 366 468.308 363.314 468.308 360V331Z" fill="#C4C4C4"/>
</g>
<g id="Pc-frame">
<path id="ComputerFrame" fill-rule="evenodd" clip-rule="evenodd" d="M357.307 0C347.919 0 340.307 7.61116 340.307 17V230C340.307 239.389 347.919 247 357.307 247H738.307C747.696 247 755.307 239.389 755.307 230V17C755.307 7.61116 747.696 0 738.307 0H357.307ZM374.51 19.3891C366.778 19.3891 360.51 25.6571 360.51 33.3891V215.297C360.51 223.029 366.778 229.297 374.51 229.297H721.946C729.678 229.297 735.946 223.029 735.946 215.297V33.3891C735.946 25.6571 729.678 19.3891 721.946 19.3891H374.51Z" fill="#C4C4C4"/>
</g>
<g id="Display">
<rect id="Rectangle 4" x="360.307" y="19" width="376" height="211" rx="10" fill="white"/>
</g>
<g id="Display_2">
<rect id="Rectangle 4_2" x="360.307" y="19" width="376" height="211" rx="10" fill="black"/>
</g>
<g id="Tea">
<g id="Ellipse 1" filter="url(#filter4_f_51:72)">
<ellipse cx="209.09" cy="269.873" rx="70.9096" ry="33.6301" fill="black" fill-opacity="0.5"/>
</g>
<ellipse id="Ellipse 7" cx="196.91" cy="262.647" rx="70.9096" ry="33.6301" fill="#D6D3D3"/>
<path id="Ellipse 2" d="M266.319 260.453C266.319 264.305 264.565 268.087 261.161 271.655C257.751 275.23 252.744 278.518 246.442 281.311C233.843 286.897 216.332 290.39 196.91 290.39C177.488 290.39 159.976 286.897 147.377 281.311C141.075 278.518 136.069 275.23 132.658 271.655C129.254 268.087 127.5 264.305 127.5 260.453C127.5 256.602 129.254 252.82 132.658 249.252C136.069 245.677 141.075 242.389 147.377 239.596C159.976 234.01 177.488 230.517 196.91 230.517C216.332 230.517 233.843 234.01 246.442 239.596C252.744 242.389 257.751 245.677 261.161 249.252C264.565 252.82 266.319 256.602 266.319 260.453Z" fill="url(#paint1_radial_51:72)" stroke="white" stroke-width="3"/>
<ellipse id="Ellipse 4" cx="198.737" cy="260.088" rx="46.4202" ry="17.1806" fill="url(#paint2_radial_51:72)"/>
<path id="Vector 8" d="M239.675 216.223C263.433 214.029 244.792 248.756 224.689 256.067" stroke="url(#paint3_linear_51:72)" stroke-width="7"/>
<path id="Vector 7" d="M159.71 246.61C153.641 233.329 153.822 224.805 152.317 211.47C166.206 237.79 234.603 229.017 241.137 211.47C239.061 227.636 237.67 238.324 230.031 251.674C224.964 260.529 217.173 267.918 207.481 271.101C200.868 273.273 195.007 273.528 188.855 272.191C175.674 269.329 165.316 258.879 159.71 246.61Z" fill="url(#paint4_linear_51:72)"/>
<path id="Ellipse 3" d="M240.271 210.008C240.271 212.464 239.115 214.845 236.939 217.056C234.761 219.27 231.585 221.286 227.62 222.99C219.692 226.397 208.706 228.517 196.544 228.517C184.382 228.517 173.396 226.397 165.468 222.99C161.504 221.286 158.327 219.27 156.149 217.056C153.973 214.845 152.817 212.464 152.817 210.008C152.817 207.552 153.973 205.171 156.149 202.96C158.327 200.747 161.504 198.731 165.468 197.027C173.396 193.62 184.382 191.5 196.544 191.5C208.706 191.5 219.692 193.62 227.62 197.027C231.585 198.731 234.761 200.747 236.939 202.96C239.115 205.171 240.271 207.552 240.271 210.008Z" fill="url(#paint5_linear_51:72)" stroke="white"/>
<ellipse id="Ellipse 5" cx="197.275" cy="214.76" rx="36.9169" ry="14.2562" fill="#DAC29A"/>
<ellipse id="Ellipse 6" cx="197.275" cy="216.588" rx="33.9927" ry="12.4285" fill="#54411A"/>
</g>
<g id="Book">
<path id="Rectangle 62" d="M885.536 317.034L997.802 347.695L998.798 358.149L899.765 422.861L792.272 387.518L792.272 374.078L885.536 317.034Z" fill="white"/>
<path id="Rectangle 61_2" d="M890.31 313.348L999.209 347.058L899.267 410.416L791.277 375.073L890.31 313.348Z" fill="#0B4F5F"/>
<path id="Vector" d="M804.027 370.957C804.503 371.529 808.655 376.567 807.616 377.252C806.576 377.938 802.365 372.94 801.888 372.368L802.316 372.086C804.778 375.041 806.743 376.715 807.274 376.843C807.292 376.353 806.062 374.195 803.599 371.239C801.141 368.291 799.18 366.617 798.644 366.483C798.651 366.711 798.915 367.486 800.127 369.232L799.673 369.48C797.62 366.52 798.113 366.195 798.299 366.073C799.338 365.387 803.55 370.385 804.027 370.957Z" fill="white"/>
<path id="Vector_2" d="M815.789 363.197C816.266 363.769 820.418 368.806 819.378 369.492C818.339 370.178 814.127 365.18 813.65 364.608L814.078 364.325C816.541 367.281 818.505 368.955 819.037 369.082C819.054 368.593 817.824 366.434 815.361 363.479C812.904 360.53 810.943 358.857 810.406 358.723C810.414 358.95 810.678 359.725 811.89 361.472L811.436 361.72C809.383 358.76 809.876 358.435 810.061 358.312C811.101 357.627 815.312 362.625 815.789 363.197Z" fill="white"/>
<path id="Vector_3" d="M827.767 355.295C828.244 355.867 832.395 360.905 831.356 361.59C830.316 362.276 826.105 357.278 825.628 356.706L826.056 356.424C828.519 359.379 830.483 361.053 831.015 361.181C831.032 360.691 829.802 358.533 827.339 355.577C824.882 352.628 822.921 350.955 822.384 350.821C822.391 351.049 822.656 351.824 823.867 353.57L823.413 353.818C821.36 350.858 821.853 350.533 822.039 350.411C823.078 349.725 827.29 354.723 827.767 355.295Z" fill="white"/>
<path id="Vector_4" d="M839.744 347.393C840.221 347.966 844.373 353.003 843.333 353.689C842.294 354.374 838.082 349.377 837.605 348.804L838.033 348.522C840.496 351.478 842.46 353.152 842.992 353.279C843.009 352.789 841.779 350.631 839.316 347.676C836.859 344.727 834.898 343.054 834.361 342.92C834.369 343.147 834.633 343.922 835.844 345.669L835.391 345.917C833.338 342.957 833.831 342.632 834.016 342.509C835.056 341.823 839.267 346.821 839.744 347.393Z" fill="white"/>
<path id="Vector_5" d="M851.721 339.492C852.198 340.064 856.35 345.101 855.31 345.787C854.271 346.473 850.059 341.475 849.583 340.903L850.01 340.621C852.473 343.576 854.437 345.25 854.969 345.378C854.986 344.888 853.757 342.729 851.294 339.774C848.836 336.825 846.875 335.152 846.339 335.018C846.346 335.245 846.61 336.02 847.822 337.767L847.368 338.015C845.315 335.055 845.808 334.73 845.994 334.608C847.033 333.922 851.245 338.92 851.721 339.492Z" fill="white"/>
<path id="Vector_6" d="M863.698 331.59C864.175 332.162 868.327 337.2 867.287 337.885C866.248 338.571 862.036 333.573 861.56 333.001L861.987 332.719C864.45 335.674 866.414 337.348 866.946 337.476C866.964 336.986 865.734 334.828 863.271 331.872C860.813 328.924 858.852 327.25 858.316 327.116C858.323 327.344 858.587 328.119 859.799 329.866L859.345 330.113C857.292 327.154 857.785 326.828 857.971 326.706C859.01 326.02 863.222 331.018 863.698 331.59Z" fill="white"/>
<path id="Vector_7" d="M875.676 323.689C876.153 324.261 880.305 329.298 879.265 329.984C878.226 330.67 874.014 325.672 873.537 325.1L873.965 324.817C876.428 327.773 878.392 329.447 878.924 329.574C878.941 329.085 877.711 326.926 875.248 323.971C872.791 321.022 870.83 319.349 870.293 319.215C870.301 319.442 870.565 320.217 871.776 321.964L871.323 322.212C869.27 319.252 869.763 318.927 869.948 318.804C870.988 318.119 875.199 323.117 875.676 323.689Z" fill="white"/>
<path id="Vector_8" d="M887.653 315.787C888.13 316.359 892.282 321.397 891.242 322.082C890.203 322.768 885.991 317.77 885.515 317.198L885.942 316.916C888.405 319.871 890.369 321.545 890.901 321.673C890.918 321.183 889.689 319.025 887.226 316.069C884.768 313.12 882.807 311.447 882.271 311.313C882.278 311.541 882.542 312.316 883.754 314.062L883.3 314.31C881.247 311.35 881.74 311.025 881.926 310.903C882.965 310.217 887.177 315.215 887.653 315.787Z" fill="white"/>
<g id="Rectangle 63" filter="url(#filter5_f_51:72)">
<path d="M908.723 330.77L948.037 343.713L938.084 349.189L899.267 335.887L908.723 330.77Z" fill="black"/>
</g>
<g id="Rectangle 64" filter="url(#filter6_f_51:72)">
<path d="M895.767 338.294L935.098 351.189L925.019 357.016L886.193 343.741L895.767 338.294Z" fill="black"/>
</g>
</g>
</g>
</g>
<defs>
<filter id="filter0_f_51:72" x="127.058" y="333.069" width="165.784" height="102.672" filterUnits="userSpaceOnUse" color-interpolation-filters="sRGB">
<feFlood flood-opacity="0" result="BackgroundImageFix"/>
<feBlend mode="normal" in="SourceGraphic" in2="BackgroundImageFix" result="shape"/>
<feGaussianBlur stdDeviation="3.5" result="effect1_foregroundBlur_51:72"/>
</filter>
<filter id="filter1_f_51:72" x="835.624" y="203.517" width="69.3527" height="32.9375" filterUnits="userSpaceOnUse" color-interpolation-filters="sRGB">
<feFlood flood-opacity="0" result="BackgroundImageFix"/>
<feBlend mode="normal" in="SourceGraphic" in2="BackgroundImageFix" result="shape"/>
<feGaussianBlur stdDeviation="0.5" result="effect1_foregroundBlur_51:72"/>
</filter>
<filter id="filter2_f_51:72" x="814.482" y="214.443" width="61.6972" height="35.3106" filterUnits="userSpaceOnUse" color-interpolation-filters="sRGB">
<feFlood flood-opacity="0" result="BackgroundImageFix"/>
<feBlend mode="normal" in="SourceGraphic" in2="BackgroundImageFix" result="shape"/>
<feGaussianBlur stdDeviation="0.5" result="effect1_foregroundBlur_51:72"/>
</filter>
<filter id="filter3_f_51:72" x="830.55" y="214.443" width="59.1602" height="34.0197" filterUnits="userSpaceOnUse" color-interpolation-filters="sRGB">
<feFlood flood-opacity="0" result="BackgroundImageFix"/>
<feBlend mode="normal" in="SourceGraphic" in2="BackgroundImageFix" result="shape"/>
<feGaussianBlur stdDeviation="0.5" result="effect1_foregroundBlur_51:72"/>
</filter>
<filter id="filter4_f_51:72" x="128.181" y="226.243" width="161.819" height="87.2602" filterUnits="userSpaceOnUse" color-interpolation-filters="sRGB">
<feFlood flood-opacity="0" result="BackgroundImageFix"/>
<feBlend mode="normal" in="SourceGraphic" in2="BackgroundImageFix" result="shape"/>
<feGaussianBlur stdDeviation="5" result="effect1_foregroundBlur_51:72"/>
</filter>
<filter id="filter5_f_51:72" x="897.267" y="328.77" width="52.7697" height="22.4181" filterUnits="userSpaceOnUse" color-interpolation-filters="sRGB">
<feFlood flood-opacity="0" result="BackgroundImageFix"/>
<feBlend mode="normal" in="SourceGraphic" in2="BackgroundImageFix" result="shape"/>
<feGaussianBlur stdDeviation="1" result="effect1_foregroundBlur_51:72"/>
</filter>
<filter id="filter6_f_51:72" x="884.193" y="336.294" width="52.9054" height="22.7228" filterUnits="userSpaceOnUse" color-interpolation-filters="sRGB">
<feFlood flood-opacity="0" result="BackgroundImageFix"/>
<feBlend mode="normal" in="SourceGraphic" in2="BackgroundImageFix" result="shape"/>
<feGaussianBlur stdDeviation="1" result="effect1_foregroundBlur_51:72"/>
</filter>
<linearGradient id="paint0_linear_51:72" x1="106" y1="41.9995" x2="1080" y2="437.999" gradientUnits="userSpaceOnUse">
<stop stop-color="#E97B3E"/>
<stop offset="0.496253" stop-color="#993903"/>
<stop offset="1" stop-color="#722A02"/>
</linearGradient>
<radialGradient id="paint1_radial_51:72" cx="0" cy="0" r="1" gradientUnits="userSpaceOnUse" gradientTransform="translate(196.91 260.453) rotate(90) scale(31.4368 70.9096)">
<stop stop-color="#E6E6E6"/>
<stop offset="1" stop-color="white"/>
</radialGradient>
<radialGradient id="paint2_radial_51:72" cx="0" cy="0" r="1" gradientUnits="userSpaceOnUse" gradientTransform="translate(198.737 260.088) rotate(90) scale(17.1806 46.4202)">
<stop/>
<stop offset="1" stop-color="#816464" stop-opacity="0"/>
</radialGradient>
<linearGradient id="paint3_linear_51:72" x1="240.616" y1="215.773" x2="240.616" y2="252.411" gradientUnits="userSpaceOnUse">
<stop stop-color="#E0DCDC"/>
<stop offset="1" stop-color="#B0B0B0"/>
</linearGradient>
<linearGradient id="paint4_linear_51:72" x1="155.607" y1="238.886" x2="236.751" y2="242.176" gradientUnits="userSpaceOnUse">
<stop stop-color="#EBDEDE"/>
<stop offset="0.53125" stop-color="#E4E4E4"/>
<stop offset="1" stop-color="#FBF2DC"/>
</linearGradient>
<linearGradient id="paint5_linear_51:72" x1="196.544" y1="191" x2="196.544" y2="229.017" gradientUnits="userSpaceOnUse">
<stop stop-color="#C4C4C4"/>
<stop offset="1" stop-color="#8B8A8A"/>
</linearGradient>
</defs>
</svg>
